<mxfile host="Electron" agent="Mozilla/5.0 (Windows NT 10.0; Win64; x64) AppleWebKit/537.36 (KHTML, like Gecko) draw.io/24.7.8 Chrome/128.0.6613.36 Electron/32.0.1 Safari/537.36" version="24.7.8">
  <diagram name="Page-1" id="v83zFgUCOFi6TadzYa-5">
    <mxGraphModel dx="2345" dy="1129" grid="1" gridSize="10" guides="1" tooltips="1" connect="1" arrows="1" fold="1" page="1" pageScale="1" pageWidth="850" pageHeight="1100" math="0" shadow="0">
      <root>
        <mxCell id="0" />
        <mxCell id="1" parent="0" />
        <mxCell id="ng09JlIAPSpFhbb7EUtV-2" value="System&lt;span style=&quot;color: rgba(0, 0, 0, 0); font-family: monospace; font-size: 0px; text-align: start; text-wrap-mode: nowrap;&quot;&gt;%3CmxGraphModel%3E%3Croot%3E%3CmxCell%20id%3D%220%22%2F%3E%3CmxCell%20id%3D%221%22%20parent%3D%220%22%2F%3E%3CmxCell%20id%3D%222%22%20value%3D%22Customer%22%20style%3D%22shape%3DumlLifeline%3Bperimeter%3DlifelinePerimeter%3BwhiteSpace%3Dwrap%3Bhtml%3D1%3Bcontainer%3D1%3BdropTarget%3D0%3Bcollapsible%3D0%3BrecursiveResize%3D0%3BoutlineConnect%3D0%3BportConstraint%3Deastwest%3BnewEdgeStyle%3D%7B%26quot%3Bcurved%26quot%3B%3A0%2C%26quot%3Brounded%26quot%3B%3A0%7D%3B%22%20vertex%3D%221%22%20parent%3D%221%22%3E%3CmxGeometry%20x%3D%2260%22%20y%3D%2210%22%20width%3D%22100%22%20height%3D%22300%22%20as%3D%22geometry%22%2F%3E%3C%2FmxCell%3E%3C%2Froot%3E%3C%2FmxGraphModel%3E&lt;/span&gt;" style="shape=umlLifeline;perimeter=lifelinePerimeter;whiteSpace=wrap;html=1;container=1;dropTarget=0;collapsible=0;recursiveResize=0;outlineConnect=0;portConstraint=eastwest;newEdgeStyle={&quot;curved&quot;:0,&quot;rounded&quot;:0};" parent="1" vertex="1">
          <mxGeometry x="220" y="10" width="100" height="840" as="geometry" />
        </mxCell>
        <mxCell id="5RUs6ctqoLabbZIM7Yp0-10" value="" style="html=1;points=[[0,0,0,0,5],[0,1,0,0,-5],[1,0,0,0,5],[1,1,0,0,-5]];perimeter=orthogonalPerimeter;outlineConnect=0;targetShapes=umlLifeline;portConstraint=eastwest;newEdgeStyle={&quot;curved&quot;:0,&quot;rounded&quot;:0};" vertex="1" parent="ng09JlIAPSpFhbb7EUtV-2">
          <mxGeometry x="45" y="60" width="10" height="80" as="geometry" />
        </mxCell>
        <mxCell id="5RUs6ctqoLabbZIM7Yp0-20" value="" style="html=1;points=[[0,0,0,0,5],[0,1,0,0,-5],[1,0,0,0,5],[1,1,0,0,-5]];perimeter=orthogonalPerimeter;outlineConnect=0;targetShapes=umlLifeline;portConstraint=eastwest;newEdgeStyle={&quot;curved&quot;:0,&quot;rounded&quot;:0};" vertex="1" parent="ng09JlIAPSpFhbb7EUtV-2">
          <mxGeometry x="45" y="180" width="10" height="90" as="geometry" />
        </mxCell>
        <mxCell id="5RUs6ctqoLabbZIM7Yp0-61" value="" style="html=1;points=[[0,0,0,0,5],[0,1,0,0,-5],[1,0,0,0,5],[1,1,0,0,-5]];perimeter=orthogonalPerimeter;outlineConnect=0;targetShapes=umlLifeline;portConstraint=eastwest;newEdgeStyle={&quot;curved&quot;:0,&quot;rounded&quot;:0};" vertex="1" parent="ng09JlIAPSpFhbb7EUtV-2">
          <mxGeometry x="45" y="500" width="10" height="40" as="geometry" />
        </mxCell>
        <mxCell id="5RUs6ctqoLabbZIM7Yp0-62" value="" style="html=1;points=[[0,0,0,0,5],[0,1,0,0,-5],[1,0,0,0,5],[1,1,0,0,-5]];perimeter=orthogonalPerimeter;outlineConnect=0;targetShapes=umlLifeline;portConstraint=eastwest;newEdgeStyle={&quot;curved&quot;:0,&quot;rounded&quot;:0};" vertex="1" parent="ng09JlIAPSpFhbb7EUtV-2">
          <mxGeometry x="45" y="600" width="10" height="180" as="geometry" />
        </mxCell>
        <mxCell id="ng09JlIAPSpFhbb7EUtV-3" value="Card" style="shape=umlLifeline;perimeter=lifelinePerimeter;whiteSpace=wrap;html=1;container=1;dropTarget=0;collapsible=0;recursiveResize=0;outlineConnect=0;portConstraint=eastwest;newEdgeStyle={&quot;curved&quot;:0,&quot;rounded&quot;:0};" parent="1" vertex="1">
          <mxGeometry x="390" y="10" width="100" height="830" as="geometry" />
        </mxCell>
        <mxCell id="5RUs6ctqoLabbZIM7Yp0-21" value="" style="html=1;points=[[0,0,0,0,5],[0,1,0,0,-5],[1,0,0,0,5],[1,1,0,0,-5]];perimeter=orthogonalPerimeter;outlineConnect=0;targetShapes=umlLifeline;portConstraint=eastwest;newEdgeStyle={&quot;curved&quot;:0,&quot;rounded&quot;:0};" vertex="1" parent="ng09JlIAPSpFhbb7EUtV-3">
          <mxGeometry x="45" y="270" width="10" height="60" as="geometry" />
        </mxCell>
        <mxCell id="5RUs6ctqoLabbZIM7Yp0-63" value="" style="html=1;points=[[0,0,0,0,5],[0,1,0,0,-5],[1,0,0,0,5],[1,1,0,0,-5]];perimeter=orthogonalPerimeter;outlineConnect=0;targetShapes=umlLifeline;portConstraint=eastwest;newEdgeStyle={&quot;curved&quot;:0,&quot;rounded&quot;:0};" vertex="1" parent="ng09JlIAPSpFhbb7EUtV-3">
          <mxGeometry x="45" y="630" width="10" height="20" as="geometry" />
        </mxCell>
        <mxCell id="ng09JlIAPSpFhbb7EUtV-4" value="Order&lt;span style=&quot;color: rgba(0, 0, 0, 0); font-family: monospace; font-size: 0px; text-align: start; text-wrap-mode: nowrap;&quot;&gt;%3CmxGraphModel%3E%3Croot%3E%3CmxCell%20id%3D%220%22%2F%3E%3CmxCell%20id%3D%221%22%20parent%3D%220%22%2F%3E%3CmxCell%20id%3D%222%22%20value%3D%22Customer%22%20style%3D%22shape%3DumlLifeline%3Bperimeter%3DlifelinePerimeter%3BwhiteSpace%3Dwrap%3Bhtml%3D1%3Bcontainer%3D1%3BdropTarget%3D0%3Bcollapsible%3D0%3BrecursiveResize%3D0%3BoutlineConnect%3D0%3BportConstraint%3Deastwest%3BnewEdgeStyle%3D%7B%26quot%3Bcurved%26quot%3B%3A0%2C%26quot%3Brounded%26quot%3B%3A0%7D%3B%22%20vertex%3D%221%22%20parent%3D%221%22%3E%3CmxGeometry%20x%3D%2260%22%20y%3D%2210%22%20width%3D%22100%22%20height%3D%22300%22%20as%3D%22geometry%22%2F%3E%3C%2FmxCell%3E%3C%2Froot%3E%3C%2FmxGraphModel%3E&lt;/span&gt;" style="shape=umlLifeline;perimeter=lifelinePerimeter;whiteSpace=wrap;html=1;container=1;dropTarget=0;collapsible=0;recursiveResize=0;outlineConnect=0;portConstraint=eastwest;newEdgeStyle={&quot;curved&quot;:0,&quot;rounded&quot;:0};" parent="1" vertex="1">
          <mxGeometry x="540" y="10" width="100" height="830" as="geometry" />
        </mxCell>
        <mxCell id="5RUs6ctqoLabbZIM7Yp0-65" value="" style="html=1;points=[[0,0,0,0,5],[0,1,0,0,-5],[1,0,0,0,5],[1,1,0,0,-5]];perimeter=orthogonalPerimeter;outlineConnect=0;targetShapes=umlLifeline;portConstraint=eastwest;newEdgeStyle={&quot;curved&quot;:0,&quot;rounded&quot;:0};" vertex="1" parent="ng09JlIAPSpFhbb7EUtV-4">
          <mxGeometry x="45" y="650" width="10" height="20" as="geometry" />
        </mxCell>
        <mxCell id="ng09JlIAPSpFhbb7EUtV-5" value="Invoice" style="shape=umlLifeline;perimeter=lifelinePerimeter;whiteSpace=wrap;html=1;container=1;dropTarget=0;collapsible=0;recursiveResize=0;outlineConnect=0;portConstraint=eastwest;newEdgeStyle={&quot;curved&quot;:0,&quot;rounded&quot;:0};" parent="1" vertex="1">
          <mxGeometry x="700" y="10" width="100" height="820" as="geometry" />
        </mxCell>
        <mxCell id="5RUs6ctqoLabbZIM7Yp0-66" value="" style="html=1;points=[[0,0,0,0,5],[0,1,0,0,-5],[1,0,0,0,5],[1,1,0,0,-5]];perimeter=orthogonalPerimeter;outlineConnect=0;targetShapes=umlLifeline;portConstraint=eastwest;newEdgeStyle={&quot;curved&quot;:0,&quot;rounded&quot;:0};" vertex="1" parent="ng09JlIAPSpFhbb7EUtV-5">
          <mxGeometry x="45" y="665" width="10" height="105" as="geometry" />
        </mxCell>
        <mxCell id="ng09JlIAPSpFhbb7EUtV-6" value="" style="endArrow=classic;html=1;rounded=0;" parent="1" target="5RUs6ctqoLabbZIM7Yp0-10" edge="1">
          <mxGeometry width="50" height="50" relative="1" as="geometry">
            <mxPoint x="109.5" y="80" as="sourcePoint" />
            <mxPoint x="260" y="80" as="targetPoint" />
            <Array as="points">
              <mxPoint x="200" y="80" />
              <mxPoint x="250" y="80" />
            </Array>
          </mxGeometry>
        </mxCell>
        <mxCell id="ng09JlIAPSpFhbb7EUtV-7" value="&lt;font style=&quot;font-size: 9px;&quot;&gt;Đăng nhập&lt;/font&gt;" style="text;html=1;align=center;verticalAlign=middle;resizable=0;points=[];autosize=1;strokeColor=none;fillColor=none;" parent="1" vertex="1">
          <mxGeometry x="155" y="70" width="70" height="30" as="geometry" />
        </mxCell>
        <mxCell id="ng09JlIAPSpFhbb7EUtV-8" value="" style="endArrow=classic;html=1;rounded=0;" parent="1" edge="1">
          <mxGeometry width="50" height="50" relative="1" as="geometry">
            <mxPoint x="265.00000000000006" y="130" as="sourcePoint" />
            <mxPoint x="105.51219512195121" y="130" as="targetPoint" />
            <Array as="points">
              <mxPoint x="215.5" y="130" />
              <mxPoint x="135.5" y="130" />
            </Array>
          </mxGeometry>
        </mxCell>
        <mxCell id="ng09JlIAPSpFhbb7EUtV-17" value="" style="endArrow=classic;html=1;rounded=0;" parent="1" target="ng09JlIAPSpFhbb7EUtV-3" edge="1">
          <mxGeometry width="50" height="50" relative="1" as="geometry">
            <mxPoint x="275" y="280" as="sourcePoint" />
            <mxPoint x="430" y="280" as="targetPoint" />
            <Array as="points">
              <mxPoint x="325.5" y="280" />
              <mxPoint x="415.5" y="280" />
            </Array>
          </mxGeometry>
        </mxCell>
        <mxCell id="ng09JlIAPSpFhbb7EUtV-18" value="&lt;font style=&quot;font-size: 9px;&quot;&gt;Thêm sản phẩm vào giỏ&lt;/font&gt;" style="text;html=1;align=center;verticalAlign=middle;resizable=0;points=[];autosize=1;strokeColor=none;fillColor=none;" parent="1" vertex="1">
          <mxGeometry x="300" y="280" width="120" height="30" as="geometry" />
        </mxCell>
        <mxCell id="5RUs6ctqoLabbZIM7Yp0-3" value="customer" style="shape=umlActor;verticalLabelPosition=bottom;verticalAlign=top;html=1;outlineConnect=0;" vertex="1" parent="1">
          <mxGeometry x="90" width="20" height="40" as="geometry" />
        </mxCell>
        <mxCell id="5RUs6ctqoLabbZIM7Yp0-6" value="" style="endArrow=none;dashed=1;html=1;rounded=0;" edge="1" parent="1" source="5RUs6ctqoLabbZIM7Yp0-8">
          <mxGeometry width="50" height="50" relative="1" as="geometry">
            <mxPoint x="100" y="140" as="sourcePoint" />
            <mxPoint x="100" y="60" as="targetPoint" />
          </mxGeometry>
        </mxCell>
        <mxCell id="5RUs6ctqoLabbZIM7Yp0-9" value="" style="endArrow=none;dashed=1;html=1;rounded=0;" edge="1" parent="1" target="5RUs6ctqoLabbZIM7Yp0-8">
          <mxGeometry width="50" height="50" relative="1" as="geometry">
            <mxPoint x="100" y="140" as="sourcePoint" />
            <mxPoint x="100" y="70" as="targetPoint" />
          </mxGeometry>
        </mxCell>
        <mxCell id="5RUs6ctqoLabbZIM7Yp0-8" value="" style="html=1;points=[[0,0,0,0,5],[0,1,0,0,-5],[1,0,0,0,5],[1,1,0,0,-5]];perimeter=orthogonalPerimeter;outlineConnect=0;targetShapes=umlLifeline;portConstraint=eastwest;newEdgeStyle={&quot;curved&quot;:0,&quot;rounded&quot;:0};" vertex="1" parent="1">
          <mxGeometry x="95" y="80" width="10" height="760" as="geometry" />
        </mxCell>
        <mxCell id="5RUs6ctqoLabbZIM7Yp0-13" value="thông báo&amp;nbsp; thành công&amp;nbsp;&lt;div&gt;&lt;br&gt;&lt;/div&gt;" style="text;html=1;align=center;verticalAlign=middle;resizable=0;points=[];autosize=1;strokeColor=none;fillColor=none;" vertex="1" parent="1">
          <mxGeometry x="115" y="130" width="150" height="40" as="geometry" />
        </mxCell>
        <mxCell id="5RUs6ctqoLabbZIM7Yp0-14" value="" style="endArrow=classic;html=1;rounded=0;" edge="1" parent="1">
          <mxGeometry width="50" height="50" relative="1" as="geometry">
            <mxPoint x="104" y="190" as="sourcePoint" />
            <mxPoint x="265" y="190" as="targetPoint" />
            <Array as="points">
              <mxPoint x="195" y="190" />
              <mxPoint x="245" y="190" />
            </Array>
          </mxGeometry>
        </mxCell>
        <mxCell id="5RUs6ctqoLabbZIM7Yp0-15" value="&lt;font style=&quot;font-size: 9px;&quot;&gt;Tìm kiếm và xem sản phẩm&lt;/font&gt;" style="text;html=1;align=center;verticalAlign=middle;resizable=0;points=[];autosize=1;strokeColor=none;fillColor=none;" vertex="1" parent="1">
          <mxGeometry x="115" y="180" width="130" height="30" as="geometry" />
        </mxCell>
        <mxCell id="5RUs6ctqoLabbZIM7Yp0-16" value="" style="endArrow=classic;html=1;rounded=0;" edge="1" parent="1">
          <mxGeometry width="50" height="50" relative="1" as="geometry">
            <mxPoint x="265" y="230" as="sourcePoint" />
            <mxPoint x="105" y="230" as="targetPoint" />
            <Array as="points">
              <mxPoint x="205" y="230" />
            </Array>
          </mxGeometry>
        </mxCell>
        <mxCell id="5RUs6ctqoLabbZIM7Yp0-17" value="&lt;span style=&quot;font-size: 9px;&quot;&gt;Thông tin sản phẩm&lt;/span&gt;" style="text;html=1;align=center;verticalAlign=middle;resizable=0;points=[];autosize=1;strokeColor=none;fillColor=none;" vertex="1" parent="1">
          <mxGeometry x="130" y="220" width="100" height="30" as="geometry" />
        </mxCell>
        <mxCell id="5RUs6ctqoLabbZIM7Yp0-18" value="" style="endArrow=classic;html=1;rounded=0;" edge="1" parent="1">
          <mxGeometry width="50" height="50" relative="1" as="geometry">
            <mxPoint x="105" y="260" as="sourcePoint" />
            <mxPoint x="265" y="260" as="targetPoint" />
            <Array as="points">
              <mxPoint x="195" y="260" />
              <mxPoint x="245" y="260" />
            </Array>
          </mxGeometry>
        </mxCell>
        <mxCell id="5RUs6ctqoLabbZIM7Yp0-19" value="Chọn sản phẩm" style="edgeLabel;html=1;align=center;verticalAlign=middle;resizable=0;points=[];" vertex="1" connectable="0" parent="5RUs6ctqoLabbZIM7Yp0-18">
          <mxGeometry x="0.4686" y="8" relative="1" as="geometry">
            <mxPoint x="-37" y="18" as="offset" />
          </mxGeometry>
        </mxCell>
        <mxCell id="5RUs6ctqoLabbZIM7Yp0-23" value="alt" style="shape=umlFrame;whiteSpace=wrap;html=1;pointerEvents=0;" vertex="1" parent="1">
          <mxGeometry x="30" y="310" width="760" height="220" as="geometry" />
        </mxCell>
        <mxCell id="5RUs6ctqoLabbZIM7Yp0-24" value="" style="endArrow=none;dashed=1;html=1;rounded=0;exitX=0.001;exitY=0.542;exitDx=0;exitDy=0;exitPerimeter=0;entryX=1;entryY=0.551;entryDx=0;entryDy=0;entryPerimeter=0;" edge="1" parent="1" source="5RUs6ctqoLabbZIM7Yp0-23" target="5RUs6ctqoLabbZIM7Yp0-23">
          <mxGeometry width="50" height="50" relative="1" as="geometry">
            <mxPoint x="330" y="460" as="sourcePoint" />
            <mxPoint x="380" y="410" as="targetPoint" />
          </mxGeometry>
        </mxCell>
        <mxCell id="5RUs6ctqoLabbZIM7Yp0-25" value="muốn thêm sản phẩm&amp;nbsp;" style="text;html=1;align=center;verticalAlign=middle;resizable=0;points=[];autosize=1;strokeColor=none;fillColor=none;" vertex="1" parent="1">
          <mxGeometry x="110" y="310" width="140" height="30" as="geometry" />
        </mxCell>
        <mxCell id="5RUs6ctqoLabbZIM7Yp0-26" value="" style="endArrow=classic;html=1;rounded=0;" edge="1" parent="1">
          <mxGeometry width="50" height="50" relative="1" as="geometry">
            <mxPoint x="430" y="332" as="sourcePoint" />
            <mxPoint x="271.9966666666666" y="332.33" as="targetPoint" />
          </mxGeometry>
        </mxCell>
        <mxCell id="5RUs6ctqoLabbZIM7Yp0-27" value="&lt;font style=&quot;font-size: 9px;&quot;&gt;(loop)&lt;/font&gt;&lt;div&gt;&lt;font style=&quot;font-size: 9px;&quot;&gt;Khách hàng có muốn thêm sản phẩm&lt;/font&gt;&lt;/div&gt;" style="text;html=1;align=center;verticalAlign=middle;resizable=0;points=[];autosize=1;strokeColor=none;fillColor=none;fontSize=16;" vertex="1" parent="1">
          <mxGeometry x="105" y="350" width="170" height="50" as="geometry" />
        </mxCell>
        <mxCell id="5RUs6ctqoLabbZIM7Yp0-28" value="" style="endArrow=classic;html=1;rounded=0;" edge="1" parent="1">
          <mxGeometry width="50" height="50" relative="1" as="geometry">
            <mxPoint x="269" y="354.55" as="sourcePoint" />
            <mxPoint x="110.99666666666661" y="354.88" as="targetPoint" />
          </mxGeometry>
        </mxCell>
        <mxCell id="5RUs6ctqoLabbZIM7Yp0-29" value="khách hàng ko muốn thêm sản phẩm&amp;nbsp;" style="text;html=1;align=center;verticalAlign=middle;resizable=0;points=[];autosize=1;strokeColor=none;fillColor=none;" vertex="1" parent="1">
          <mxGeometry x="120" y="438" width="220" height="30" as="geometry" />
        </mxCell>
        <mxCell id="5RUs6ctqoLabbZIM7Yp0-32" value="" style="endArrow=classic;html=1;rounded=0;" edge="1" parent="1">
          <mxGeometry width="50" height="50" relative="1" as="geometry">
            <mxPoint x="440" y="450" as="sourcePoint" />
            <mxPoint x="580" y="450" as="targetPoint" />
            <Array as="points">
              <mxPoint x="531" y="450" />
            </Array>
          </mxGeometry>
        </mxCell>
        <mxCell id="5RUs6ctqoLabbZIM7Yp0-33" value="&lt;font style=&quot;font-size: 9px;&quot;&gt;hiển thị đơn hàng&lt;/font&gt;" style="text;html=1;align=center;verticalAlign=middle;resizable=0;points=[];autosize=1;strokeColor=none;fillColor=none;" vertex="1" parent="1">
          <mxGeometry x="470" y="450" width="90" height="30" as="geometry" />
        </mxCell>
        <mxCell id="5RUs6ctqoLabbZIM7Yp0-34" value="" style="html=1;points=[[0,0,0,0,5],[0,1,0,0,-5],[1,0,0,0,5],[1,1,0,0,-5]];perimeter=orthogonalPerimeter;outlineConnect=0;targetShapes=umlLifeline;portConstraint=eastwest;newEdgeStyle={&quot;curved&quot;:0,&quot;rounded&quot;:0};" vertex="1" parent="1">
          <mxGeometry x="585" y="450" width="10" height="60" as="geometry" />
        </mxCell>
        <mxCell id="5RUs6ctqoLabbZIM7Yp0-35" value="" style="endArrow=classic;html=1;rounded=0;exitX=1;exitY=0;exitDx=0;exitDy=5;exitPerimeter=0;" edge="1" parent="1" source="5RUs6ctqoLabbZIM7Yp0-34" target="5RUs6ctqoLabbZIM7Yp0-34">
          <mxGeometry width="50" height="50" relative="1" as="geometry">
            <mxPoint x="760" y="400" as="sourcePoint" />
            <mxPoint x="810" y="350" as="targetPoint" />
            <Array as="points">
              <mxPoint x="620" y="455" />
            </Array>
          </mxGeometry>
        </mxCell>
        <mxCell id="5RUs6ctqoLabbZIM7Yp0-39" value="&lt;font style=&quot;font-size: 9px;&quot;&gt;Chi tiết giỏ hàng&lt;/font&gt;" style="text;html=1;align=center;verticalAlign=middle;resizable=0;points=[];autosize=1;strokeColor=none;fillColor=none;" vertex="1" parent="1">
          <mxGeometry x="300" y="490" width="90" height="30" as="geometry" />
        </mxCell>
        <mxCell id="5RUs6ctqoLabbZIM7Yp0-40" value="" style="html=1;verticalAlign=bottom;endArrow=open;dashed=1;endSize=8;curved=0;rounded=0;" edge="1" parent="1" source="ng09JlIAPSpFhbb7EUtV-3">
          <mxGeometry relative="1" as="geometry">
            <mxPoint x="355" y="520" as="sourcePoint" />
            <mxPoint x="275" y="520" as="targetPoint" />
          </mxGeometry>
        </mxCell>
        <mxCell id="5RUs6ctqoLabbZIM7Yp0-41" value="" style="html=1;verticalAlign=bottom;endArrow=open;dashed=1;endSize=8;curved=0;rounded=0;" edge="1" parent="1">
          <mxGeometry relative="1" as="geometry">
            <mxPoint x="580" y="504" as="sourcePoint" />
            <mxPoint x="440" y="504.44" as="targetPoint" />
          </mxGeometry>
        </mxCell>
        <mxCell id="5RUs6ctqoLabbZIM7Yp0-42" value="" style="html=1;verticalAlign=bottom;endArrow=open;dashed=1;endSize=8;curved=0;rounded=0;" edge="1" parent="1">
          <mxGeometry relative="1" as="geometry">
            <mxPoint x="270" y="550" as="sourcePoint" />
            <mxPoint x="105" y="550" as="targetPoint" />
          </mxGeometry>
        </mxCell>
        <mxCell id="5RUs6ctqoLabbZIM7Yp0-43" value="&lt;font style=&quot;font-size: 9px;&quot;&gt;Hiển thị chi tiết giỏ hàng&lt;/font&gt;" style="text;html=1;align=center;verticalAlign=middle;resizable=0;points=[];autosize=1;strokeColor=none;fillColor=none;" vertex="1" parent="1">
          <mxGeometry x="125" y="550" width="120" height="30" as="geometry" />
        </mxCell>
        <mxCell id="5RUs6ctqoLabbZIM7Yp0-44" value="" style="endArrow=classic;html=1;rounded=0;" edge="1" parent="1">
          <mxGeometry width="50" height="50" relative="1" as="geometry">
            <mxPoint x="109.5" y="610" as="sourcePoint" />
            <mxPoint x="270.5" y="610" as="targetPoint" />
            <Array as="points">
              <mxPoint x="200.5" y="610" />
              <mxPoint x="250.5" y="610" />
            </Array>
          </mxGeometry>
        </mxCell>
        <mxCell id="5RUs6ctqoLabbZIM7Yp0-45" value="&lt;font style=&quot;font-size: 9px;&quot;&gt;Đặt hàng&lt;/font&gt;" style="text;html=1;align=center;verticalAlign=middle;resizable=0;points=[];autosize=1;strokeColor=none;fillColor=none;" vertex="1" parent="1">
          <mxGeometry x="155" y="610" width="60" height="30" as="geometry" />
        </mxCell>
        <mxCell id="5RUs6ctqoLabbZIM7Yp0-48" value="hiển thị các mặt hàng&amp;nbsp;" style="text;html=1;align=center;verticalAlign=middle;resizable=0;points=[];autosize=1;strokeColor=none;fillColor=none;" vertex="1" parent="1">
          <mxGeometry x="275" y="610" width="140" height="30" as="geometry" />
        </mxCell>
        <mxCell id="5RUs6ctqoLabbZIM7Yp0-50" value="" style="endArrow=classic;html=1;rounded=0;" edge="1" parent="1">
          <mxGeometry width="50" height="50" relative="1" as="geometry">
            <mxPoint x="269" y="640" as="sourcePoint" />
            <mxPoint x="430" y="640" as="targetPoint" />
            <Array as="points">
              <mxPoint x="360" y="640" />
              <mxPoint x="410" y="640" />
            </Array>
          </mxGeometry>
        </mxCell>
        <mxCell id="5RUs6ctqoLabbZIM7Yp0-51" value="" style="endArrow=classic;html=1;rounded=0;" edge="1" parent="1">
          <mxGeometry width="50" height="50" relative="1" as="geometry">
            <mxPoint x="439.5" y="660" as="sourcePoint" />
            <mxPoint x="580" y="660" as="targetPoint" />
            <Array as="points">
              <mxPoint x="471.5" y="660" />
              <mxPoint x="561.5" y="660" />
            </Array>
          </mxGeometry>
        </mxCell>
        <mxCell id="5RUs6ctqoLabbZIM7Yp0-52" value="phương thức thanh toán&amp;nbsp;" style="text;html=1;align=center;verticalAlign=middle;resizable=0;points=[];autosize=1;strokeColor=none;fillColor=none;" vertex="1" parent="1">
          <mxGeometry x="435" y="620" width="160" height="30" as="geometry" />
        </mxCell>
        <mxCell id="5RUs6ctqoLabbZIM7Yp0-53" value="" style="endArrow=classic;html=1;rounded=0;exitX=0.5;exitY=0.667;exitDx=0;exitDy=0;exitPerimeter=0;" edge="1" parent="1">
          <mxGeometry width="50" height="50" relative="1" as="geometry">
            <mxPoint x="595" y="680" as="sourcePoint" />
            <mxPoint x="740" y="680" as="targetPoint" />
            <Array as="points">
              <mxPoint x="637" y="680" />
              <mxPoint x="727" y="680" />
            </Array>
          </mxGeometry>
        </mxCell>
        <mxCell id="5RUs6ctqoLabbZIM7Yp0-54" value="&lt;font style=&quot;font-size: 9px;&quot;&gt;Tạo hóa đơn&lt;/font&gt;" style="edgeLabel;html=1;align=center;verticalAlign=middle;resizable=0;points=[];" vertex="1" connectable="0" parent="5RUs6ctqoLabbZIM7Yp0-53">
          <mxGeometry x="-0.0003" y="-6" relative="1" as="geometry">
            <mxPoint y="4" as="offset" />
          </mxGeometry>
        </mxCell>
        <mxCell id="5RUs6ctqoLabbZIM7Yp0-55" value="" style="html=1;verticalAlign=bottom;endArrow=open;dashed=1;endSize=8;curved=0;rounded=0;" edge="1" parent="1">
          <mxGeometry relative="1" as="geometry">
            <mxPoint x="740" y="770" as="sourcePoint" />
            <mxPoint x="274.6635294117646" y="770" as="targetPoint" />
          </mxGeometry>
        </mxCell>
        <mxCell id="5RUs6ctqoLabbZIM7Yp0-56" value="thông báo đạt hàng thành công&amp;nbsp;" style="text;html=1;align=center;verticalAlign=middle;resizable=0;points=[];autosize=1;strokeColor=none;fillColor=none;" vertex="1" parent="1">
          <mxGeometry x="265" y="740" width="190" height="30" as="geometry" />
        </mxCell>
        <mxCell id="5RUs6ctqoLabbZIM7Yp0-57" value="" style="html=1;verticalAlign=bottom;endArrow=open;dashed=1;endSize=8;curved=0;rounded=0;" edge="1" parent="1">
          <mxGeometry relative="1" as="geometry">
            <mxPoint x="270" y="790" as="sourcePoint" />
            <mxPoint x="110" y="790" as="targetPoint" />
          </mxGeometry>
        </mxCell>
        <mxCell id="5RUs6ctqoLabbZIM7Yp0-58" value="hiện thị hóa đơn&amp;nbsp;" style="text;html=1;align=center;verticalAlign=middle;resizable=0;points=[];autosize=1;strokeColor=none;fillColor=none;" vertex="1" parent="1">
          <mxGeometry x="135" y="758" width="110" height="30" as="geometry" />
        </mxCell>
        <mxCell id="5RUs6ctqoLabbZIM7Yp0-59" value="" style="endArrow=classic;html=1;rounded=0;" edge="1" parent="1">
          <mxGeometry width="50" height="50" relative="1" as="geometry">
            <mxPoint x="740" y="730" as="sourcePoint" />
            <mxPoint x="280" y="730" as="targetPoint" />
            <Array as="points">
              <mxPoint x="730" y="730" />
            </Array>
          </mxGeometry>
        </mxCell>
        <mxCell id="5RUs6ctqoLabbZIM7Yp0-60" value="lưu hóa đơn" style="text;html=1;align=center;verticalAlign=middle;resizable=0;points=[];autosize=1;strokeColor=none;fillColor=none;" vertex="1" parent="1">
          <mxGeometry x="470" y="700" width="90" height="30" as="geometry" />
        </mxCell>
      </root>
    </mxGraphModel>
  </diagram>
</mxfile>
